<?xml version="1.0"?>
<svg xmlns="http://www.w3.org/2000/svg" id="Capa_1" enable-background="new 0 0 512 512" height="512px" viewBox="0 0 512 512" width="512px"><g><path d="m437.672 212.163c-.008 0-.016 0-.024 0-5.512 0-9.986 4.462-9.999 9.977-.013 5.523 4.454 10.01 9.977 10.023 29.982.07 54.375 24.52 54.375 54.501v69.992c0 30.054-24.451 54.505-54.506 54.505h-93.885c-2.926 0-5.705 1.281-7.605 3.507l-44.997 52.701c-.065.077-.109.113-.111.121-.126.005-.326-.071-.371-.116 0 0-.018-.055-.018-.189v-46.023c0-5.523-4.478-10-10-10h-15.572c-30.055 0-54.506-24.451-54.506-54.505v-40.465c0-.006.001-.013.001-.019v-29.51c0-30.051 24.448-54.5 54.5-54.5h6.11c.02 0 .038-.003.058-.003h78.587c5.522 0 10-4.477 10-10s-4.478-10-10-10h-68.646v-30.487c0-41.08-33.425-74.5-74.51-74.5h-132.02c-41.085 0-74.51 33.42-74.51 74.5v69.99c0 39.493 30.887 71.908 69.771 74.361l31.195 36.543c3.957 4.634 9.542 7.137 15.332 7.137 2.368 0 4.771-.419 7.109-1.282 8.057-2.972 13.263-10.441 13.263-19.029v-23.22h53.759v30.484c0 41.083 33.423 74.505 74.506 74.505h5.572v36.023c0 8.589 5.207 16.059 13.266 19.031 7.947 2.931 16.949.576 22.445-5.86l42.003-49.194h89.273c41.083 0 74.506-33.423 74.506-74.505v-69.992c0-40.985-33.344-74.406-74.328-74.502zm-311.002 94.008c-5.522 0-10 4.477-10 10v33.22c0 .101-.01.156-.007.164-.075.078-.29.153-.355.152 0 0-.048-.03-.132-.128l-34.061-39.9c-1.899-2.226-4.679-3.507-7.605-3.507-30.057 0-54.51-24.453-54.51-54.51v-69.99c0-30.051 24.453-54.5 54.51-54.5h132.02c30.057 0 54.51 24.449 54.51 54.5v30.589c-30.017 1.552-57.128 21.988-66.677 50.553-2.569 7.685-3.934 15.74-3.934 23.85v19.507z" data-original="#000000" class="active-path" data-old_color="#000000" fill="#61D081"/><path d="m350.476 286.497h10.882c3.092 0 5.606 2.515 5.606 5.606 0 5.523 4.478 10 10 10s10-4.477 10-10c0-12.563-9.097-23.034-21.048-25.192v-3.18c0-5.523-4.478-10-10-10s-10 4.477-10 10v3.18c-11.95 2.158-21.047 12.629-21.047 25.192v11.59c0 14.12 11.487 25.607 25.606 25.607h10.882c3.092 0 5.606 2.515 5.606 5.607v11.104c0 3.092-2.515 5.607-5.606 5.607h-10.882c-3.092 0-5.606-2.515-5.606-5.607 0-5.523-4.478-10-10-10s-10 4.477-10 10c0 12.563 9.097 23.034 21.047 25.192v3.18c0 5.523 4.478 10 10 10s10-4.477 10-10v-3.18c11.951-2.158 21.048-12.629 21.048-25.192v-11.104c0-14.12-11.487-25.607-25.606-25.607h-10.882c-3.092 0-5.606-2.515-5.606-5.607v-11.59c-.001-3.091 2.514-5.606 5.606-5.606z" data-original="#000000" class="active-path" data-old_color="#000000" fill="#61D081"/><path d="m134.078 182.228h10.882c3.092 0 5.606 2.515 5.606 5.607 0 5.523 4.478 10 10 10s10-4.477 10-10c0-12.563-9.097-23.035-21.048-25.192v-3.18c0-5.523-4.478-10-10-10s-10 4.477-10 10v3.18c-11.951 2.158-21.048 12.629-21.048 25.192v11.59c0 14.12 11.487 25.607 25.607 25.607h10.882c3.092 0 5.606 2.515 5.606 5.607v11.104c0 3.092-2.515 5.607-5.606 5.607h-10.882c-3.092 0-5.607-2.515-5.607-5.607 0-5.523-4.478-10-10-10s-10 4.477-10 10c0 12.563 9.097 23.034 21.048 25.192v3.18c0 5.523 4.478 10 10 10s10-4.477 10-10v-3.18c11.951-2.158 21.048-12.629 21.048-25.192v-11.104c0-14.12-11.487-25.607-25.606-25.607h-10.882c-3.092 0-5.607-2.515-5.607-5.607v-11.59c0-3.092 2.515-5.607 5.607-5.607z" data-original="#000000" class="active-path" data-old_color="#000000" fill="#61D081"/><path d="m390.21 231.394c5.029 2.097 10.976-.39 13.06-5.41 2.088-5.03-.381-10.977-5.41-13.06-5.04-2.087-10.97.377-13.06 5.41-2.084 5.02.369 10.995 5.41 13.06z" data-original="#000000" class="active-path" data-old_color="#000000" fill="#61D081"/><path d="m310.868 109.38h27.635v62.848c0 5.523 4.478 10 10 10h51.006c5.522 0 10-4.477 10-10v-62.848h26.104c4.002 0 7.618-2.385 9.192-6.064 1.575-3.679.806-7.942-1.956-10.838l-61.842-64.842c-1.877-1.968-4.475-3.086-7.194-3.098-.014 0-.028 0-.042 0-2.704 0-5.294 1.095-7.178 3.037l-62.903 64.842c-2.797 2.883-3.597 7.16-2.031 10.86 1.565 3.699 5.193 6.103 9.209 6.103zm62.841-60.417 38.547 40.417h-12.747c-5.522 0-10 4.477-10 10v62.848h-31.006v-62.848c0-5.523-4.478-10-10-10h-14.002z" data-original="#000000" class="active-path" data-old_color="#000000" fill="#61D081"/></g> </svg>
