<?xml version="1.0"?>
<svg xmlns="http://www.w3.org/2000/svg" id="Layer_3" enable-background="new 0 0 64 64" height="512px" viewBox="0 0 64 64" width="512px"><g><path d="m34 54h-4c-.553 0-1 .447-1 1v8h2v-7h2v7h2v-8c0-.553-.447-1-1-1z" data-original="#000000" class="active-path" data-old_color="#000000" fill="#61D081"/><path d="m37 38h2v5h-2z" data-original="#000000" class="active-path" data-old_color="#000000" fill="#61D081"/><path d="m37 32h-5-5c-2.757 0-5 2.243-5 5v8c0 .553.447 1 1 1h2v17h2v-11h10v11h2v-17h2c.553 0 1-.447 1-1v-8c0-2.757-2.243-5-5-5zm0 18h-10v-4h10zm3-6h-16v-7c0-1.654 1.346-3 3-3h10c1.654 0 3 1.346 3 3z" data-original="#000000" class="active-path" data-old_color="#000000" fill="#61D081"/><path d="m27 38h-2v4c0 .553.447 1 1 1h9v-2h-8z" data-original="#000000" class="active-path" data-old_color="#000000" fill="#61D081"/><path d="m36 28v-2c0-2.206-1.794-4-4-4s-4 1.794-4 4v2c0 2.206 1.794 4 4 4s4-1.794 4-4zm-2 0c0 1.103-.897 2-2 2s-2-.897-2-2v-2c0-1.103.897-2 2-2s2 .897 2 2z" data-original="#000000" class="active-path" data-old_color="#000000" fill="#61D081"/><path d="m62.447 6.105-10-5c-.281-.141-.613-.141-.895 0l-10 5c-.338.17-.552.516-.552.895v10c0 .379.214.725.553.895l10 5c.14.07.294.105.447.105s.307-.035.447-.105l10-5c.339-.17.553-.516.553-.895v-10c0-.379-.214-.725-.553-.895zm-19.447 1.513 8-4v1.524c-1.721.447-3 1.999-3 3.858 0 2.206 1.794 4 4 4 1.103 0 2 .897 2 2s-.897 2-2 2-2-.897-2-2h-2c0 1.859 1.279 3.411 3 3.858v1.524l-8-4zm18 8.764-8 4v-1.524c1.721-.447 3-1.999 3-3.858 0-2.206-1.794-4-4-4-1.103 0-2-.897-2-2s.897-2 2-2 2 .897 2 2h2c0-1.859-1.279-3.411-3-3.858v-1.524l8 4z" data-original="#000000" class="active-path" data-old_color="#000000" fill="#61D081"/><path d="m47 33c-1.654 0-3 1.346-3 3s1.346 3 3 3 3-1.346 3-3-1.346-3-3-3zm0 4c-.552 0-1-.448-1-1s.448-1 1-1 1 .448 1 1-.448 1-1 1z" data-original="#000000" class="active-path" data-old_color="#000000" fill="#61D081"/><path d="m52 25c-2.206 0-4 1.794-4 4s1.794 4 4 4 4-1.794 4-4-1.794-4-4-4zm0 6c-1.103 0-2-.897-2-2s.897-2 2-2 2 .897 2 2-.897 2-2 2z" data-original="#000000" class="active-path" data-old_color="#000000" fill="#61D081"/><path d="m12 23c.153 0 .307-.035.447-.105l10-5c.339-.17.553-.516.553-.895v-10c0-.379-.214-.725-.553-.895l-10-5c-.281-.141-.613-.141-.895 0l-10 5c-.338.17-.552.516-.552.895v10c0 .379.214.725.553.895l10 5c.14.07.294.105.447.105zm-9-15.382 9-4.5 9 4.5v8.764l-2 1v-9.382h-2v10.382l-2 1v-9.382h-2v10.382l-1 .5-1-.5v-8.382h-2v7.382l-2-1v-4.382h-2v3.382l-2-1z" data-original="#000000" class="active-path" data-old_color="#000000" fill="#61D081"/><path d="m17 33c-1.654 0-3 1.346-3 3s1.346 3 3 3 3-1.346 3-3-1.346-3-3-3zm0 4c-.552 0-1-.448-1-1s.448-1 1-1 1 .448 1 1-.448 1-1 1z" data-original="#000000" class="active-path" data-old_color="#000000" fill="#61D081"/><path d="m16 29c0-2.206-1.794-4-4-4s-4 1.794-4 4 1.794 4 4 4 4-1.794 4-4zm-4 2c-1.103 0-2-.897-2-2s.897-2 2-2 2 .897 2 2-.897 2-2 2z" data-original="#000000" class="active-path" data-old_color="#000000" fill="#61D081"/></g> </svg>
