<svg id="Layer_5" enable-background="new 0 0 64 64" height="512" viewBox="0 0 64 64" width="512" xmlns="http://www.w3.org/2000/svg"><path d="m46 29h2v-2h2v-12h-2v-2h-2v2h-2v12h2zm0-12h2v8h-2z"/><path d="m54 47c.551 0 1 .448 1 1h2c0-1.654-1.346-3-3-3v-2h-2v2h-3v3c0 1.654 1.346 3 3 3h2c.551 0 1 .448 1 1v1h-3c-.551 0-1-.448-1-1h-2c0 1.654 1.346 3 3 3v2h2v-2h3v-3c0-1.654-1.346-3-3-3h-2c-.551 0-1-.448-1-1v-1z"/><path d="m60 39h-2.382l-1.382-2.764c-.381-.763-1.148-1.236-2-1.236-1.233 0-2.236 1.003-2.236 2.236v1.764h-7v-.432c8.561-1.843 15-9.464 15-18.568 0-10.477-8.523-19-19-19s-19 8.523-19 19c0 .327.01.659.03 1h-3.756c1.667-1.467 2.726-3.61 2.726-6 0-4.411-3.589-8-8-8s-8 3.589-8 8c0 2.518 1.172 4.765 2.997 6.233-4 .914-6.997 4.494-6.997 8.767v11c0 2.757 2.243 5 5 5v13c0 2.206 1.794 4 4 4 1.2 0 2.266-.542 3-1.382.734.84 1.8 1.382 3 1.382 2.206 0 4-1.794 4-4v-29c0-.551.449-1 1-1h3.298c2.683 4.982 7.317 8.432 12.702 9.58v4.42h-2v14c0 3.309 2.691 6 6 6 1.771 0 3.36-.776 4.46-2h14.54c1.654 0 3-1.346 3-3v-16c0-1.654-1.346-3-3-3zm-53-24c0-3.309 2.691-6 6-6s6 2.691 6 6c0 3.308-2.69 5.999-5.998 6h-.004c-3.308-.001-5.998-2.692-5.998-6zm11 15v29c0 1.103-.897 2-2 2s-2-.897-2-2v-12-.758c0-.526.213-1.042.586-1.414l1.121-1.121-1.414-1.414-1.121 1.121c-.745.744-1.172 1.774-1.172 2.828v.758 12c0 1.103-.897 2-2 2s-2-.897-2-2v-32h-2v17c-1.654 0-3-1.346-3-3v-11c0-3.86 3.14-7 7-7h2.998.002s.001 0 .002 0h12.147c.567 0 1.109-.242 1.489-.665l6.825-7.615c.68-.816 2-.935 2.815-.258.412.343.665.825.713 1.357s-.113 1.051-.437 1.439l-7.706 8.727c-.568.645-1.388 1.015-2.247 1.015h-5.601c-1.654 0-3 1.346-3 3zm20-3v-8h2v8zm0 2v2h2v-2h2v-12h-3.14c.114-.44.166-.897.124-1.363-.097-1.064-.604-2.027-1.426-2.713-.718-.596-1.626-.924-2.558-.924-1.19 0-2.311.524-3.05 1.412l-3.711 4.14c1.149-6.001 6.43-10.552 12.761-10.552 7.168 0 13 5.832 13 13s-5.832 13-13 13c-4.325 0-8.248-2.114-10.681-5.662.009-.01.02-.019.029-.029l5.652-6.402v8.093zm-11.394-.001c.726-.001 1.434-.161 2.08-.458 2.808 4.063 7.342 6.459 12.314 6.459 8.271 0 15-6.729 15-15s-6.729-15-15-15-15 6.729-15 15c0 .016.002.031.002.047l-.854.953h-1.114c-.021-.343-.034-.676-.034-1 0-9.374 7.626-17 17-17s17 7.626 17 17-7.626 17-17 17c-5.927 0-11.299-3.031-14.394-8.001zm12.394 9.886c.66.069 1.325.115 2 .115.676 0 1.342-.038 2-.107v4.107h-4zm2 22.115c-2.206 0-4-1.794-4-4v-8h6v-2h-6v-2h8v6h-6v2h6v4c0 2.206-1.794 4-4 4zm20-3c0 .552-.449 1-1 1h-13.35c.223-.627.35-1.298.35-2v-14h-2v-2h9v-3.764c0-.221.35-.303.447-.105l1.935 3.869h3.618c.551 0 1 .448 1 1z"/></svg>